<svg width="38" height="38" viewBox="0 0 38 38" fill="none" xmlns="http://www.w3.org/2000/svg">
<path d="M17.9122 35.0918C18.224 35.2638 18.575 35.3518 18.931 35.3472C19.287 35.3426 19.6357 35.2456 19.9429 35.0657C24.1929 32.6373 31.5768 27.0465 34.4779 19.7838C38.7339 10.3277 28.7387 2.77875 21.831 8.208C21.1102 8.77444 20.2041 9.42163 19.5807 10.0368C19.2981 10.3134 18.8005 10.3419 18.5072 10.0759C17.6878 9.33019 16.4077 8.37307 15.5847 7.81732C9.69474 3.83207 -1.02125 9.08438 3.54943 20.2944C5.22381 25.3258 13.2038 32.4639 17.9122 35.0918Z" fill="url(#paint0_radial_23_2)"/>
<path d="M17.9122 35.0918C18.224 35.2638 18.575 35.3518 18.931 35.3472C19.287 35.3426 19.6357 35.2456 19.9429 35.0657C24.1929 32.6373 31.5768 27.0465 34.4779 19.7838C38.7339 10.3277 28.7387 2.77875 21.831 8.208C21.1102 8.77444 20.2041 9.42163 19.5807 10.0368C19.2981 10.3134 18.8005 10.3419 18.5072 10.0759C17.6878 9.33019 16.4077 8.37307 15.5847 7.81732C9.69474 3.83207 -1.02125 9.08438 3.54943 20.2944C5.22381 25.3258 13.2038 32.4639 17.9122 35.0918Z" fill="url(#paint1_radial_23_2)"/>
<path d="M17.9122 35.0918C18.224 35.2638 18.575 35.3518 18.931 35.3472C19.287 35.3426 19.6357 35.2456 19.9429 35.0657C24.1929 32.6373 31.5768 27.0465 34.4779 19.7838C38.7339 10.3277 28.7387 2.77875 21.831 8.208C21.1102 8.77444 20.2041 9.42163 19.5807 10.0368C19.2981 10.3134 18.8005 10.3419 18.5072 10.0759C17.6878 9.33019 16.4077 8.37307 15.5847 7.81732C9.69474 3.83207 -1.02125 9.08438 3.54943 20.2944C5.22381 25.3258 13.2038 32.4639 17.9122 35.0918Z" fill="url(#paint2_radial_23_2)"/>
<path d="M17.9122 35.0918C18.224 35.2638 18.575 35.3518 18.931 35.3472C19.287 35.3426 19.6357 35.2456 19.9429 35.0657C24.1929 32.6373 31.5768 27.0465 34.4779 19.7838C38.7339 10.3277 28.7387 2.77875 21.831 8.208C21.1102 8.77444 20.2041 9.42163 19.5807 10.0368C19.2981 10.3134 18.8005 10.3419 18.5072 10.0759C17.6878 9.33019 16.4077 8.37307 15.5847 7.81732C9.69474 3.83207 -1.02125 9.08438 3.54943 20.2944C5.22381 25.3258 13.2038 32.4639 17.9122 35.0918Z" fill="url(#paint3_radial_23_2)"/>
<path d="M17.9122 35.0918C18.224 35.2638 18.575 35.3518 18.931 35.3472C19.287 35.3426 19.6357 35.2456 19.9429 35.0657C24.1929 32.6373 31.5768 27.0465 34.4779 19.7838C38.7339 10.3277 28.7387 2.77875 21.831 8.208C21.1102 8.77444 20.2041 9.42163 19.5807 10.0368C19.2981 10.3134 18.8005 10.3419 18.5072 10.0759C17.6878 9.33019 16.4077 8.37307 15.5847 7.81732C9.69474 3.83207 -1.02125 9.08438 3.54943 20.2944C5.22381 25.3258 13.2038 32.4639 17.9122 35.0918Z" fill="url(#paint4_linear_23_2)"/>
<path d="M17.9122 35.0918C18.224 35.2638 18.575 35.3518 18.931 35.3472C19.287 35.3426 19.6357 35.2456 19.9429 35.0657C24.1929 32.6373 31.5768 27.0465 34.4779 19.7838C38.7339 10.3277 28.7387 2.77875 21.831 8.208C21.1102 8.77444 20.2041 9.42163 19.5807 10.0368C19.2981 10.3134 18.8005 10.3419 18.5072 10.0759C17.6878 9.33019 16.4077 8.37307 15.5847 7.81732C9.69474 3.83207 -1.02125 9.08438 3.54943 20.2944C5.22381 25.3258 13.2038 32.4639 17.9122 35.0918Z" fill="url(#paint5_linear_23_2)"/>
<path d="M19.0154 10.564C20.0747 11.5223 21.7075 11.2444 22.6017 10.1294C23.9602 8.4372 25.8863 6.69395 28.4382 6.53126C26.2711 6.11563 23.9115 6.57282 21.8298 8.20801C21.6501 8.34893 21.4625 8.4938 21.2669 8.64263C20.691 9.0832 20.0794 9.55226 19.6139 10.0035C19.3123 10.2956 18.7851 10.3253 18.4739 10.0451L18.3302 9.91682C18.5072 10.0949 18.7482 10.3218 19.0154 10.564Z" fill="url(#paint6_linear_23_2)"/>
<g filter="url(#filter0_f_23_2)">
<path d="M19.6721 14.3913V21.7419C19.6721 24.9648 23.0802 26.0419 24.1181 22.9888C25.0052 20.3763 25.3828 17.5619 24.6204 15.1074C24.1039 13.4449 22.8558 12.5341 21.6849 12.2158C20.4535 11.8809 19.6721 13.1136 19.6721 14.3913Z" fill="#FA1C56"/>
</g>
<g filter="url(#filter1_f_23_2)">
<path d="M31.7077 16.1885C33.663 14.2877 34.1879 11.6561 32.88 10.3107C31.5721 8.96531 28.9267 9.41555 26.9714 11.3164C25.0161 13.2172 24.4912 15.8488 25.7991 17.1942C27.107 18.5396 29.7524 18.0893 31.7077 16.1885Z" fill="url(#paint7_radial_23_2)"/>
</g>
<g filter="url(#filter2_f_23_2)">
<path d="M17.4465 11.1486C15.7321 9.02796 13.1594 8.2652 11.7002 9.44488C10.2411 10.6246 10.4481 13.3 12.1626 15.4206C13.877 17.5412 16.4498 18.3039 17.9089 17.1243C19.368 15.9446 19.161 13.2692 17.4465 11.1486Z" fill="url(#paint8_radial_23_2)" fill-opacity="0.5"/>
</g>
<g filter="url(#filter3_f_23_2)">
<path d="M10.6317 24.0398L9.96787 20.1934C9.79094 19.646 9.39312 19.5819 9.16987 19.9524L6.74025 25.0563L10.6317 24.0398Z" fill="#A71135"/>
</g>
<path d="M8.037 23.8806C7.97131 24.0839 7.86251 24.2707 7.71802 24.4281C7.57353 24.5855 7.39677 24.7098 7.19981 24.7926L4.07075 26.1072C3.96293 26.1525 3.87089 26.2286 3.80616 26.326C3.74142 26.4234 3.70689 26.5377 3.70689 26.6546C3.70689 26.7716 3.74142 26.8859 3.80616 26.9833C3.87089 27.0807 3.96293 27.1568 4.07075 27.2021L7.21406 28.5238C7.61306 28.6912 7.91944 29.0261 8.05125 29.4381L9.44062 33.7571C9.4791 33.8767 9.55456 33.9811 9.65614 34.0551C9.75772 34.1292 9.88018 34.1691 10.0059 34.1691C10.1316 34.1691 10.254 34.1292 10.3556 34.0551C10.4572 33.9811 10.5326 33.8767 10.5711 33.7571L11.9546 29.4512C12.02 29.2481 12.1284 29.0615 12.2725 28.9041C12.4166 28.7468 12.5929 28.6223 12.7894 28.5392L15.9493 27.2021C16.0568 27.1566 16.1485 27.0805 16.2129 26.9832C16.2774 26.886 16.3118 26.7719 16.3118 26.6552C16.3118 26.5385 16.2774 26.4244 16.2129 26.3272C16.1485 26.2299 16.0568 26.1538 15.9493 26.1084L12.8036 24.7772C12.6076 24.6942 12.4317 24.57 12.2878 24.4131C12.144 24.2561 12.0356 24.0701 11.97 23.8676L10.5687 19.5415C10.53 19.4223 10.4545 19.3184 10.353 19.2447C10.2516 19.171 10.1295 19.1313 10.0041 19.1313C9.87873 19.1313 9.75657 19.171 9.65514 19.2447C9.55371 19.3184 9.4782 19.4223 9.43944 19.5415L8.037 23.8806Z" fill="url(#paint9_linear_23_2)"/>
<path d="M8.037 23.8806C7.97131 24.0839 7.86251 24.2707 7.71802 24.4281C7.57353 24.5855 7.39677 24.7098 7.19981 24.7926L4.07075 26.1072C3.96293 26.1525 3.87089 26.2286 3.80616 26.326C3.74142 26.4234 3.70689 26.5377 3.70689 26.6546C3.70689 26.7716 3.74142 26.8859 3.80616 26.9833C3.87089 27.0807 3.96293 27.1568 4.07075 27.2021L7.21406 28.5238C7.61306 28.6912 7.91944 29.0261 8.05125 29.4381L9.44062 33.7571C9.4791 33.8767 9.55456 33.9811 9.65614 34.0551C9.75772 34.1292 9.88018 34.1691 10.0059 34.1691C10.1316 34.1691 10.254 34.1292 10.3556 34.0551C10.4572 33.9811 10.5326 33.8767 10.5711 33.7571L11.9546 29.4512C12.02 29.2481 12.1284 29.0615 12.2725 28.9041C12.4166 28.7468 12.5929 28.6223 12.7894 28.5392L15.9493 27.2021C16.0568 27.1566 16.1485 27.0805 16.2129 26.9832C16.2774 26.886 16.3118 26.7719 16.3118 26.6552C16.3118 26.5385 16.2774 26.4244 16.2129 26.3272C16.1485 26.2299 16.0568 26.1538 15.9493 26.1084L12.8036 24.7772C12.6076 24.6942 12.4317 24.57 12.2878 24.4131C12.144 24.2561 12.0356 24.0701 11.97 23.8676L10.5687 19.5415C10.53 19.4223 10.4545 19.3184 10.353 19.2447C10.2516 19.171 10.1295 19.1313 10.0041 19.1313C9.87873 19.1313 9.75657 19.171 9.65514 19.2447C9.55371 19.3184 9.4782 19.4223 9.43944 19.5415L8.037 23.8806Z" fill="url(#paint10_linear_23_2)"/>
<path d="M8.037 23.8806C7.97131 24.0839 7.86251 24.2707 7.71802 24.4281C7.57353 24.5855 7.39677 24.7098 7.19981 24.7926L4.07075 26.1072C3.96293 26.1525 3.87089 26.2286 3.80616 26.326C3.74142 26.4234 3.70689 26.5377 3.70689 26.6546C3.70689 26.7716 3.74142 26.8859 3.80616 26.9833C3.87089 27.0807 3.96293 27.1568 4.07075 27.2021L7.21406 28.5238C7.61306 28.6912 7.91944 29.0261 8.05125 29.4381L9.44062 33.7571C9.4791 33.8767 9.55456 33.9811 9.65614 34.0551C9.75772 34.1292 9.88018 34.1691 10.0059 34.1691C10.1316 34.1691 10.254 34.1292 10.3556 34.0551C10.4572 33.9811 10.5326 33.8767 10.5711 33.7571L11.9546 29.4512C12.02 29.2481 12.1284 29.0615 12.2725 28.9041C12.4166 28.7468 12.5929 28.6223 12.7894 28.5392L15.9493 27.2021C16.0568 27.1566 16.1485 27.0805 16.2129 26.9832C16.2774 26.886 16.3118 26.7719 16.3118 26.6552C16.3118 26.5385 16.2774 26.4244 16.2129 26.3272C16.1485 26.2299 16.0568 26.1538 15.9493 26.1084L12.8036 24.7772C12.6076 24.6942 12.4317 24.57 12.2878 24.4131C12.144 24.2561 12.0356 24.0701 11.97 23.8676L10.5687 19.5415C10.53 19.4223 10.4545 19.3184 10.353 19.2447C10.2516 19.171 10.1295 19.1313 10.0041 19.1313C9.87873 19.1313 9.75657 19.171 9.65514 19.2447C9.55371 19.3184 9.4782 19.4223 9.43944 19.5415L8.037 23.8806Z" fill="url(#paint11_linear_23_2)"/>
<path d="M8.037 23.8806C7.97131 24.0839 7.86251 24.2707 7.71802 24.4281C7.57353 24.5855 7.39677 24.7098 7.19981 24.7926L4.07075 26.1072C3.96293 26.1525 3.87089 26.2286 3.80616 26.326C3.74142 26.4234 3.70689 26.5377 3.70689 26.6546C3.70689 26.7716 3.74142 26.8859 3.80616 26.9833C3.87089 27.0807 3.96293 27.1568 4.07075 27.2021L7.21406 28.5238C7.61306 28.6912 7.91944 29.0261 8.05125 29.4381L9.44062 33.7571C9.4791 33.8767 9.55456 33.9811 9.65614 34.0551C9.75772 34.1292 9.88018 34.1691 10.0059 34.1691C10.1316 34.1691 10.254 34.1292 10.3556 34.0551C10.4572 33.9811 10.5326 33.8767 10.5711 33.7571L11.9546 29.4512C12.02 29.2481 12.1284 29.0615 12.2725 28.9041C12.4166 28.7468 12.5929 28.6223 12.7894 28.5392L15.9493 27.2021C16.0568 27.1566 16.1485 27.0805 16.2129 26.9832C16.2774 26.886 16.3118 26.7719 16.3118 26.6552C16.3118 26.5385 16.2774 26.4244 16.2129 26.3272C16.1485 26.2299 16.0568 26.1538 15.9493 26.1084L12.8036 24.7772C12.6076 24.6942 12.4317 24.57 12.2878 24.4131C12.144 24.2561 12.0356 24.0701 11.97 23.8676L10.5687 19.5415C10.53 19.4223 10.4545 19.3184 10.353 19.2447C10.2516 19.171 10.1295 19.1313 10.0041 19.1313C9.87873 19.1313 9.75657 19.171 9.65514 19.2447C9.55371 19.3184 9.4782 19.4223 9.43944 19.5415L8.037 23.8806Z" fill="url(#paint12_radial_23_2)"/>
<path d="M8.15456 28.7969H7.64156C7.5151 28.6829 7.37065 28.5906 7.21406 28.5238L4.07075 27.2021C3.96293 27.1568 3.87089 27.0807 3.80616 26.9833C3.74142 26.8859 3.70689 26.7716 3.70689 26.6546C3.70689 26.5377 3.74142 26.4234 3.80616 26.326C3.87089 26.2286 3.96293 26.1525 4.07075 26.1072L7.19981 24.7926C7.39677 24.7098 7.57353 24.5855 7.71802 24.4281C7.86251 24.2707 7.97131 24.0839 8.037 23.8806L9.44062 19.5415C9.47939 19.4223 9.5549 19.3184 9.65633 19.2447C9.75776 19.171 9.87991 19.1313 10.0053 19.1313C10.1307 19.1313 10.2528 19.171 10.3542 19.2447C10.4557 19.3184 10.5312 19.4223 10.5699 19.5415L11.97 23.8676C12.103 24.2773 12.407 24.6097 12.8036 24.7772L15.9493 26.1072C16.0571 26.1525 16.1492 26.2286 16.2139 26.326C16.2786 26.4234 16.3132 26.5377 16.3132 26.6546C16.3132 26.7716 16.2786 26.8859 16.2139 26.9833C16.1492 27.0807 16.0571 27.1568 15.9493 27.2021L7.37081 27.7127C7.21881 27.7768 7.923 28.2578 8.15456 28.7969Z" fill="url(#paint13_linear_23_2)"/>
<path d="M8.15456 28.7969H7.64156C7.5151 28.6829 7.37065 28.5906 7.21406 28.5238L4.07075 27.2021C3.96293 27.1568 3.87089 27.0807 3.80616 26.9833C3.74142 26.8859 3.70689 26.7716 3.70689 26.6546C3.70689 26.5377 3.74142 26.4234 3.80616 26.326C3.87089 26.2286 3.96293 26.1525 4.07075 26.1072L7.19981 24.7926C7.39677 24.7098 7.57353 24.5855 7.71802 24.4281C7.86251 24.2707 7.97131 24.0839 8.037 23.8806L9.44062 19.5415C9.47939 19.4223 9.5549 19.3184 9.65633 19.2447C9.75776 19.171 9.87991 19.1313 10.0053 19.1313C10.1307 19.1313 10.2528 19.171 10.3542 19.2447C10.4557 19.3184 10.5312 19.4223 10.5699 19.5415L11.97 23.8676C12.103 24.2773 12.407 24.6097 12.8036 24.7772L15.9493 26.1072C16.0571 26.1525 16.1492 26.2286 16.2139 26.326C16.2786 26.4234 16.3132 26.5377 16.3132 26.6546C16.3132 26.7716 16.2786 26.8859 16.2139 26.9833C16.1492 27.0807 16.0571 27.1568 15.9493 27.2021L7.37081 27.7127C7.21881 27.7768 7.923 28.2578 8.15456 28.7969Z" fill="url(#paint14_linear_23_2)"/>
<path d="M7.64156 28.7981C7.82918 28.9703 7.97168 29.1899 8.05124 29.4381L9.44062 33.7571C9.47909 33.8767 9.55455 33.9811 9.65613 34.0551C9.75771 34.1292 9.88017 34.1691 10.0059 34.1691C10.1316 34.1691 10.254 34.1292 10.3556 34.0551C10.4572 33.9811 10.5326 33.8767 10.5711 33.7571L11.9546 29.4512C12.0356 29.1995 12.1823 28.974 12.3797 28.7981H7.64156Z" fill="url(#paint15_linear_23_2)"/>
<g filter="url(#filter4_f_23_2)">
<path d="M10.4144 19.9286L11.5615 23.7761C11.666 24.1261 11.8498 24.4472 12.0986 24.7145C12.3474 24.9818 12.6545 25.1882 12.996 25.3175L15.5729 26.2936" stroke="url(#paint16_radial_23_2)" stroke-width="0.05" stroke-linecap="round"/>
</g>
<g filter="url(#filter5_f_23_2)">
<path d="M10.1353 34.3651L11.4344 30.0972" stroke="url(#paint17_linear_23_2)" stroke-width="0.05" stroke-linecap="round"/>
</g>
<g filter="url(#filter6_f_23_2)">
<path d="M8.09399 25.1061L9.65318 19.9286" stroke="url(#paint18_linear_23_2)" stroke-width="0.05" stroke-linecap="round"/>
</g>
<g filter="url(#filter7_f_23_2)">
<path d="M25.8827 12.0603C25.7283 12.4009 25.4509 12.6706 25.1061 12.8155L23.5837 13.4568C23.5251 13.4818 23.4751 13.5235 23.44 13.5767C23.4048 13.6299 23.3861 13.6923 23.3861 13.756C23.3861 13.8198 23.4048 13.8821 23.44 13.9353C23.4751 13.9885 23.5251 14.0302 23.5837 14.0553L25.1299 14.706C25.4659 14.8473 25.7379 15.1062 25.8946 15.4339L26.8826 17.5026C26.98 17.8042 27.4051 17.8042 27.5025 17.5026L27.8647 15.7023C27.9122 15.4654 28.0169 15.2436 28.1697 15.0563C28.3224 14.8691 28.5185 14.7219 28.7411 14.6276L30.0948 14.0553C30.1538 14.0304 30.2041 13.9887 30.2395 13.9354C30.275 13.882 30.2938 13.8194 30.2938 13.7554C30.2938 13.6914 30.275 13.6288 30.2395 13.5755C30.2041 13.5221 30.1538 13.4804 30.0948 13.4556L28.652 12.8464C28.4559 12.7634 28.28 12.6392 28.1362 12.4823C27.9924 12.3253 27.884 12.1393 27.8184 11.9368L27.1462 9.85626C27.0489 9.55701 26.98 9.55701 26.8838 9.85626L25.8827 12.0603Z" fill="#C01942"/>
</g>
<path d="M26.4943 11.7859C26.4286 11.9893 26.3198 12.176 26.1753 12.3334C26.0309 12.4908 25.8541 12.6151 25.6571 12.6979L24.2262 13.3C24.1672 13.3249 24.1169 13.3666 24.0814 13.4199C24.046 13.4732 24.0272 13.5358 24.0272 13.5998C24.0272 13.6639 24.046 13.7265 24.0814 13.7798C24.1169 13.8331 24.1672 13.8748 24.2262 13.8997L25.6643 14.5053C26.0633 14.6716 26.3696 15.0064 26.5026 15.4185L27.1688 17.4919C27.265 17.7923 27.6913 17.7923 27.7887 17.4919L28.4537 15.4256C28.5187 15.2222 28.6268 15.0352 28.7707 14.8774C28.9146 14.7196 29.0908 14.5947 29.2873 14.5113L30.7361 13.8985C30.7947 13.8735 30.8447 13.8318 30.8798 13.7786C30.915 13.7254 30.9337 13.663 30.9337 13.5993C30.9337 13.5355 30.915 13.4731 30.8798 13.4199C30.8447 13.3667 30.7947 13.325 30.7361 13.3L29.2944 12.6896C29.0984 12.6067 28.9225 12.4825 28.7786 12.3255C28.6348 12.1686 28.5264 11.9825 28.4608 11.78L27.7887 9.70069C27.7677 9.63498 27.7264 9.57764 27.6706 9.53696C27.6149 9.49628 27.5477 9.47435 27.4788 9.47435C27.4098 9.47435 27.3426 9.49628 27.2869 9.53696C27.2312 9.57764 27.1898 9.63498 27.1688 9.70069L26.4943 11.7859Z" fill="url(#paint19_linear_23_2)"/>
<path d="M26.4943 11.7859C26.4286 11.9893 26.3198 12.176 26.1753 12.3334C26.0309 12.4908 25.8541 12.6151 25.6571 12.6979L24.2262 13.3C24.1672 13.3249 24.1169 13.3666 24.0814 13.4199C24.046 13.4732 24.0272 13.5358 24.0272 13.5998C24.0272 13.6639 24.046 13.7265 24.0814 13.7798C24.1169 13.8331 24.1672 13.8748 24.2262 13.8997L25.6643 14.5053C26.0633 14.6716 26.3696 15.0064 26.5026 15.4185L27.1688 17.4919C27.265 17.7923 27.6913 17.7923 27.7887 17.4919L28.4537 15.4256C28.5187 15.2222 28.6268 15.0352 28.7707 14.8774C28.9146 14.7196 29.0908 14.5947 29.2873 14.5113L30.7361 13.8985C30.7947 13.8735 30.8447 13.8318 30.8798 13.7786C30.915 13.7254 30.9337 13.663 30.9337 13.5993C30.9337 13.5355 30.915 13.4731 30.8798 13.4199C30.8447 13.3667 30.7947 13.325 30.7361 13.3L29.2944 12.6896C29.0984 12.6067 28.9225 12.4825 28.7786 12.3255C28.6348 12.1686 28.5264 11.9825 28.4608 11.78L27.7887 9.70069C27.7677 9.63498 27.7264 9.57764 27.6706 9.53696C27.6149 9.49628 27.5477 9.47435 27.4788 9.47435C27.4098 9.47435 27.3426 9.49628 27.2869 9.53696C27.2312 9.57764 27.1898 9.63498 27.1688 9.70069L26.4943 11.7859Z" fill="url(#paint20_linear_23_2)"/>
<path d="M26.4943 11.7859C26.4286 11.9893 26.3198 12.176 26.1753 12.3334C26.0309 12.4908 25.8541 12.6151 25.6571 12.6979L24.2262 13.3C24.1672 13.3249 24.1169 13.3666 24.0814 13.4199C24.046 13.4732 24.0272 13.5358 24.0272 13.5998C24.0272 13.6639 24.046 13.7265 24.0814 13.7798C24.1169 13.8331 24.1672 13.8748 24.2262 13.8997L25.6643 14.5053C26.0633 14.6716 26.3696 15.0064 26.5026 15.4185L27.1688 17.4919C27.265 17.7923 27.6913 17.7923 27.7887 17.4919L28.4537 15.4256C28.5187 15.2222 28.6268 15.0352 28.7707 14.8774C28.9146 14.7196 29.0908 14.5947 29.2873 14.5113L30.7361 13.8985C30.7947 13.8735 30.8447 13.8318 30.8798 13.7786C30.915 13.7254 30.9337 13.663 30.9337 13.5993C30.9337 13.5355 30.915 13.4731 30.8798 13.4199C30.8447 13.3667 30.7947 13.325 30.7361 13.3L29.2944 12.6896C29.0984 12.6067 28.9225 12.4825 28.7786 12.3255C28.6348 12.1686 28.5264 11.9825 28.4608 11.78L27.7887 9.70069C27.7677 9.63498 27.7264 9.57764 27.6706 9.53696C27.6149 9.49628 27.5477 9.47435 27.4788 9.47435C27.4098 9.47435 27.3426 9.49628 27.2869 9.53696C27.2312 9.57764 27.1898 9.63498 27.1688 9.70069L26.4943 11.7859Z" fill="url(#paint21_linear_23_2)"/>
<path d="M26.4943 11.7859C26.4286 11.9893 26.3198 12.176 26.1753 12.3334C26.0309 12.4908 25.8541 12.6151 25.6571 12.6979L24.2262 13.3C24.1672 13.3249 24.1169 13.3666 24.0814 13.4199C24.046 13.4732 24.0272 13.5358 24.0272 13.5998C24.0272 13.6639 24.046 13.7265 24.0814 13.7798C24.1169 13.8331 24.1672 13.8748 24.2262 13.8997L25.6643 14.5053C26.0633 14.6716 26.3696 15.0064 26.5026 15.4185L27.1688 17.4919C27.265 17.7923 27.6913 17.7923 27.7887 17.4919L28.4537 15.4256C28.5187 15.2222 28.6268 15.0352 28.7707 14.8774C28.9146 14.7196 29.0908 14.5947 29.2873 14.5113L30.7361 13.8985C30.7947 13.8735 30.8447 13.8318 30.8798 13.7786C30.915 13.7254 30.9337 13.663 30.9337 13.5993C30.9337 13.5355 30.915 13.4731 30.8798 13.4199C30.8447 13.3667 30.7947 13.325 30.7361 13.3L29.2944 12.6896C29.0984 12.6067 28.9225 12.4825 28.7786 12.3255C28.6348 12.1686 28.5264 11.9825 28.4608 11.78L27.7887 9.70069C27.7677 9.63498 27.7264 9.57764 27.6706 9.53696C27.6149 9.49628 27.5477 9.47435 27.4788 9.47435C27.4098 9.47435 27.3426 9.49628 27.2869 9.53696C27.2312 9.57764 27.1898 9.63498 27.1688 9.70069L26.4943 11.7859Z" fill="url(#paint22_radial_23_2)"/>
<path d="M26.4646 14.7737H26.1832C26.1142 14.7111 26.0351 14.6605 25.9493 14.6241L24.2262 13.8997C24.1672 13.8748 24.1169 13.8331 24.0814 13.7798C24.046 13.7265 24.0272 13.6639 24.0272 13.5998C24.0272 13.5358 24.046 13.4732 24.0814 13.4199C24.1169 13.3666 24.1672 13.3249 24.2262 13.3L25.9409 12.578C26.0481 12.5317 26.1443 12.4634 26.2232 12.3774C26.3022 12.2915 26.3622 12.1899 26.3993 12.0793L27.1688 9.70069C27.1898 9.63498 27.2312 9.57764 27.2869 9.53696C27.3426 9.49628 27.4098 9.47435 27.4788 9.47435C27.5477 9.47435 27.6149 9.49628 27.6706 9.53696C27.7264 9.57764 27.7677 9.63498 27.7887 9.70069L28.5558 12.0709C28.6271 12.2966 28.7945 12.4783 29.0118 12.5697L30.7361 13.3C30.7951 13.3249 30.8454 13.3666 30.8808 13.4199C30.9162 13.4732 30.9351 13.5358 30.9351 13.5998C30.9351 13.6639 30.9162 13.7265 30.8808 13.7798C30.8454 13.8331 30.7951 13.8748 30.7361 13.8997L26.0336 14.1788C25.9516 14.2144 26.3376 14.4792 26.4646 14.7737Z" fill="url(#paint23_linear_23_2)"/>
<path d="M26.4646 14.7737H26.1832C26.1142 14.7111 26.0351 14.6605 25.9493 14.6241L24.2262 13.8997C24.1672 13.8748 24.1169 13.8331 24.0814 13.7798C24.046 13.7265 24.0272 13.6639 24.0272 13.5998C24.0272 13.5358 24.046 13.4732 24.0814 13.4199C24.1169 13.3666 24.1672 13.3249 24.2262 13.3L25.9409 12.578C26.0481 12.5317 26.1443 12.4634 26.2232 12.3774C26.3022 12.2915 26.3622 12.1899 26.3993 12.0793L27.1688 9.70069C27.1898 9.63498 27.2312 9.57764 27.2869 9.53696C27.3426 9.49628 27.4098 9.47435 27.4788 9.47435C27.5477 9.47435 27.6149 9.49628 27.6706 9.53696C27.7264 9.57764 27.7677 9.63498 27.7887 9.70069L28.5558 12.0709C28.6271 12.2966 28.7945 12.4783 29.0118 12.5697L30.7361 13.3C30.7951 13.3249 30.8454 13.3666 30.8808 13.4199C30.9162 13.4732 30.9351 13.5358 30.9351 13.5998C30.9351 13.6639 30.9162 13.7265 30.8808 13.7798C30.8454 13.8331 30.7951 13.8748 30.7361 13.8997L26.0336 14.1788C25.9516 14.2144 26.3376 14.4792 26.4646 14.7737Z" fill="url(#paint24_linear_23_2)"/>
<path d="M26.1832 14.7737C26.2877 14.8703 26.3629 14.9874 26.4088 15.1252L27.1688 17.4919C27.2662 17.7923 27.6913 17.7923 27.7887 17.4919L28.5475 15.1323C28.5925 14.9945 28.6727 14.8709 28.7802 14.7737H26.1832Z" fill="url(#paint25_linear_23_2)"/>
<g filter="url(#filter8_f_23_2)">
<path d="M27.702 9.91325L28.1794 11.5128C28.284 11.8629 28.468 12.184 28.717 12.4514C28.966 12.7187 29.2733 12.925 29.6151 13.0542L30.5294 13.4009" stroke="url(#paint26_radial_23_2)" stroke-width="0.05" stroke-linecap="round"/>
</g>
<g filter="url(#filter9_f_23_2)">
<path d="M27.55 17.8244L28.2625 15.485" stroke="url(#paint27_linear_23_2)" stroke-width="0.05" stroke-linecap="round"/>
</g>
<g filter="url(#filter10_f_23_2)">
<path d="M26.4314 12.7502L27.2864 9.91206" stroke="url(#paint28_linear_23_2)" stroke-width="0.05" stroke-linecap="round"/>
</g>
<defs>
<filter id="filter0_f_23_2" x="18.6721" y="11.1601" width="7.35831" height="14.6379" filterUnits="userSpaceOnUse" color-interpolation-filters="sRGB">
<feFlood flood-opacity="0" result="BackgroundImageFix"/>
<feBlend mode="normal" in="SourceGraphic" in2="BackgroundImageFix" result="shape"/>
<feGaussianBlur stdDeviation="0.5" result="effect1_foregroundBlur_23_2"/>
</filter>
<filter id="filter1_f_23_2" x="24.3297" y="8.78548" width="10.0198" height="9.93393" filterUnits="userSpaceOnUse" color-interpolation-filters="sRGB">
<feFlood flood-opacity="0" result="BackgroundImageFix"/>
<feBlend mode="normal" in="SourceGraphic" in2="BackgroundImageFix" result="shape"/>
<feGaussianBlur stdDeviation="0.375" result="effect1_foregroundBlur_23_2"/>
</filter>
<filter id="filter2_f_23_2" x="9.97809" y="8.13994" width="9.65294" height="10.2893" filterUnits="userSpaceOnUse" color-interpolation-filters="sRGB">
<feFlood flood-opacity="0" result="BackgroundImageFix"/>
<feBlend mode="normal" in="SourceGraphic" in2="BackgroundImageFix" result="shape"/>
<feGaussianBlur stdDeviation="0.375" result="effect1_foregroundBlur_23_2"/>
</filter>
<filter id="filter3_f_23_2" x="6.24025" y="19.2191" width="4.89143" height="6.33711" filterUnits="userSpaceOnUse" color-interpolation-filters="sRGB">
<feFlood flood-opacity="0" result="BackgroundImageFix"/>
<feBlend mode="normal" in="SourceGraphic" in2="BackgroundImageFix" result="shape"/>
<feGaussianBlur stdDeviation="0.25" result="effect1_foregroundBlur_23_2"/>
</filter>
<filter id="filter4_f_23_2" x="10.2644" y="19.7786" width="5.45851" height="6.66502" filterUnits="userSpaceOnUse" color-interpolation-filters="sRGB">
<feFlood flood-opacity="0" result="BackgroundImageFix"/>
<feBlend mode="normal" in="SourceGraphic" in2="BackgroundImageFix" result="shape"/>
<feGaussianBlur stdDeviation="0.0625" result="effect1_foregroundBlur_23_2"/>
</filter>
<filter id="filter5_f_23_2" x="10.0353" y="29.9972" width="1.49914" height="4.46789" filterUnits="userSpaceOnUse" color-interpolation-filters="sRGB">
<feFlood flood-opacity="0" result="BackgroundImageFix"/>
<feBlend mode="normal" in="SourceGraphic" in2="BackgroundImageFix" result="shape"/>
<feGaussianBlur stdDeviation="0.0375" result="effect1_foregroundBlur_23_2"/>
</filter>
<filter id="filter6_f_23_2" x="7.91898" y="19.7536" width="1.90921" height="5.52752" filterUnits="userSpaceOnUse" color-interpolation-filters="sRGB">
<feFlood flood-opacity="0" result="BackgroundImageFix"/>
<feBlend mode="normal" in="SourceGraphic" in2="BackgroundImageFix" result="shape"/>
<feGaussianBlur stdDeviation="0.075" result="effect1_foregroundBlur_23_2"/>
</filter>
<filter id="filter7_f_23_2" x="23.0111" y="9.25682" width="7.65773" height="8.84697" filterUnits="userSpaceOnUse" color-interpolation-filters="sRGB">
<feFlood flood-opacity="0" result="BackgroundImageFix"/>
<feBlend mode="normal" in="SourceGraphic" in2="BackgroundImageFix" result="shape"/>
<feGaussianBlur stdDeviation="0.1875" result="effect1_foregroundBlur_23_2"/>
</filter>
<filter id="filter8_f_23_2" x="27.552" y="9.76324" width="3.12746" height="3.7877" filterUnits="userSpaceOnUse" color-interpolation-filters="sRGB">
<feFlood flood-opacity="0" result="BackgroundImageFix"/>
<feBlend mode="normal" in="SourceGraphic" in2="BackgroundImageFix" result="shape"/>
<feGaussianBlur stdDeviation="0.0625" result="effect1_foregroundBlur_23_2"/>
</filter>
<filter id="filter9_f_23_2" x="27.45" y="15.385" width="0.912512" height="2.53939" filterUnits="userSpaceOnUse" color-interpolation-filters="sRGB">
<feFlood flood-opacity="0" result="BackgroundImageFix"/>
<feBlend mode="normal" in="SourceGraphic" in2="BackgroundImageFix" result="shape"/>
<feGaussianBlur stdDeviation="0.0375" result="effect1_foregroundBlur_23_2"/>
</filter>
<filter id="filter10_f_23_2" x="26.2564" y="9.73705" width="1.20501" height="3.18814" filterUnits="userSpaceOnUse" color-interpolation-filters="sRGB">
<feFlood flood-opacity="0" result="BackgroundImageFix"/>
<feBlend mode="normal" in="SourceGraphic" in2="BackgroundImageFix" result="shape"/>
<feGaussianBlur stdDeviation="0.075" result="effect1_foregroundBlur_23_2"/>
</filter>
<radialGradient id="paint0_radial_23_2" cx="0" cy="0" r="1" gradientUnits="userSpaceOnUse" gradientTransform="translate(22.325 34.8294) rotate(-90) scale(38.6434 65.6937)">
<stop stop-color="#F12E52"/>
<stop offset="0.596" stop-color="#FF3B79"/>
<stop offset="1" stop-color="#FF4EC6"/>
</radialGradient>
<radialGradient id="paint1_radial_23_2" cx="0" cy="0" r="1" gradientUnits="userSpaceOnUse" gradientTransform="translate(27.1745 13.9342) rotate(142.986) scale(31.1079 58.268)">
<stop offset="0.483" stop-color="#B91D43" stop-opacity="0"/>
<stop offset="0.834" stop-color="#B91D43"/>
</radialGradient>
<radialGradient id="paint2_radial_23_2" cx="0" cy="0" r="1" gradientUnits="userSpaceOnUse" gradientTransform="translate(23.5826 21.5555) rotate(-158.663) scale(26.9835 38.1449)">
<stop offset="0.41" stop-color="#B91D43" stop-opacity="0"/>
<stop offset="0.834" stop-color="#B91D43"/>
</radialGradient>
<radialGradient id="paint3_radial_23_2" cx="0" cy="0" r="1" gradientUnits="userSpaceOnUse" gradientTransform="translate(18.3196 16.8423) rotate(90) scale(23.4845 23.4845)">
<stop offset="0.671" stop-color="#FF7AF2" stop-opacity="0"/>
<stop offset="0.934" stop-color="#FFBCE6"/>
</radialGradient>
<linearGradient id="paint4_linear_23_2" x1="20.9119" y1="19.5926" x2="30.4154" y2="30.9023" gradientUnits="userSpaceOnUse">
<stop offset="0.694" stop-color="#FF7AF2" stop-opacity="0"/>
<stop offset="0.934" stop-color="#FFBCE6"/>
</linearGradient>
<linearGradient id="paint5_linear_23_2" x1="19.7339" y1="20.0628" x2="8.58087" y2="32.6301" gradientUnits="userSpaceOnUse">
<stop offset="0.694" stop-color="#FF7AF2" stop-opacity="0"/>
<stop offset="0.934" stop-color="#FFBCE6"/>
</linearGradient>
<linearGradient id="paint6_linear_23_2" x1="23.3795" y1="11.5413" x2="20.0462" y2="7.88026" gradientUnits="userSpaceOnUse">
<stop offset="0.41" stop-color="#C12372" stop-opacity="0"/>
<stop offset="0.834" stop-color="#B5286E"/>
</linearGradient>
<radialGradient id="paint7_radial_23_2" cx="0" cy="0" r="1" gradientUnits="userSpaceOnUse" gradientTransform="translate(33.631 11.0386) rotate(139.035) scale(7.30126 4.93014)">
<stop stop-color="#FF93BA"/>
<stop offset="1" stop-color="#FF73A6" stop-opacity="0"/>
</radialGradient>
<radialGradient id="paint8_radial_23_2" cx="0" cy="0" r="1" gradientUnits="userSpaceOnUse" gradientTransform="translate(13.6864 10.4389) rotate(52.745) scale(10.5094 7.09639)">
<stop stop-color="#FF93BA"/>
<stop offset="1" stop-color="#FF73A6" stop-opacity="0"/>
</radialGradient>
<linearGradient id="paint9_linear_23_2" x1="11.1554" y1="19.1306" x2="7.92775" y2="30.7646" gradientUnits="userSpaceOnUse">
<stop stop-color="#FFD542"/>
<stop offset="1" stop-color="#FFA847"/>
</linearGradient>
<linearGradient id="paint10_linear_23_2" x1="8.92881" y1="30.0972" x2="8.01563" y2="35.1298" gradientUnits="userSpaceOnUse">
<stop offset="0.458" stop-color="#E88518" stop-opacity="0"/>
<stop offset="1" stop-color="#E88518"/>
</linearGradient>
<linearGradient id="paint11_linear_23_2" x1="6.9255" y1="28.9465" x2="1.89644" y2="28.8123" gradientUnits="userSpaceOnUse">
<stop offset="0.362" stop-color="#E88518" stop-opacity="0"/>
<stop offset="1" stop-color="#E88518"/>
</linearGradient>
<radialGradient id="paint12_radial_23_2" cx="0" cy="0" r="1" gradientUnits="userSpaceOnUse" gradientTransform="translate(12.0468 14.9928) rotate(103.828) scale(8.52239 23.5467)">
<stop stop-color="#FFFF6B"/>
<stop offset="1" stop-color="#FFFF6B" stop-opacity="0"/>
</radialGradient>
<linearGradient id="paint13_linear_23_2" x1="8.83619" y1="26.4789" x2="7.63206" y2="29.051" gradientUnits="userSpaceOnUse">
<stop offset="0.782" stop-color="#E88518" stop-opacity="0"/>
<stop offset="1" stop-color="#E88518"/>
</linearGradient>
<linearGradient id="paint14_linear_23_2" x1="8.83619" y1="26.4789" x2="7.63206" y2="29.051" gradientUnits="userSpaceOnUse">
<stop offset="0.782" stop-color="#E88518" stop-opacity="0"/>
<stop offset="1" stop-color="#E88518"/>
</linearGradient>
<linearGradient id="paint15_linear_23_2" x1="11.4178" y1="31.9331" x2="8.90387" y2="32.7762" gradientUnits="userSpaceOnUse">
<stop offset="0.776" stop-color="#E88518" stop-opacity="0"/>
<stop offset="1" stop-color="#E88518"/>
</linearGradient>
<radialGradient id="paint16_radial_23_2" cx="0" cy="0" r="1" gradientUnits="userSpaceOnUse" gradientTransform="translate(9.65318 19.9286) rotate(43.142) scale(9.30708 7.95822)">
<stop stop-color="#FFF270" stop-opacity="0"/>
<stop offset="0.548" stop-color="#FFF270"/>
<stop offset="1" stop-color="#FFF270" stop-opacity="0"/>
</radialGradient>
<linearGradient id="paint17_linear_23_2" x1="10.7659" y1="32.6384" x2="9.74344" y2="30.9676" gradientUnits="userSpaceOnUse">
<stop stop-color="#FFF270" stop-opacity="0"/>
<stop offset="0.495" stop-color="#FFF270" stop-opacity="0.6"/>
<stop offset="1" stop-color="#FFF270" stop-opacity="0"/>
</linearGradient>
<linearGradient id="paint18_linear_23_2" x1="9.50474" y1="19.5391" x2="11.4986" y2="22.439" gradientUnits="userSpaceOnUse">
<stop stop-color="#FF8A09" stop-opacity="0.6"/>
<stop offset="1" stop-color="#FF8A09" stop-opacity="0"/>
</linearGradient>
<linearGradient id="paint19_linear_23_2" x1="28.1093" y1="9.47507" x2="26.3399" y2="15.8519" gradientUnits="userSpaceOnUse">
<stop stop-color="#FFD542"/>
<stop offset="1" stop-color="#FFA847"/>
</linearGradient>
<linearGradient id="paint20_linear_23_2" x1="26.8886" y1="15.4862" x2="26.3874" y2="18.2448" gradientUnits="userSpaceOnUse">
<stop offset="0.458" stop-color="#E88518" stop-opacity="0"/>
<stop offset="1" stop-color="#E88518"/>
</linearGradient>
<linearGradient id="paint21_linear_23_2" x1="25.7901" y1="14.8556" x2="23.0351" y2="14.782" gradientUnits="userSpaceOnUse">
<stop offset="0.362" stop-color="#E88518" stop-opacity="0"/>
<stop offset="1" stop-color="#E88518"/>
</linearGradient>
<radialGradient id="paint22_radial_23_2" cx="0" cy="0" r="1" gradientUnits="userSpaceOnUse" gradientTransform="translate(28.596 7.20777) rotate(103.828) scale(4.67095 12.9055)">
<stop stop-color="#FFFF6B"/>
<stop offset="1" stop-color="#FFFF6B" stop-opacity="0"/>
</radialGradient>
<linearGradient id="paint23_linear_23_2" x1="26.8375" y1="13.5031" x2="26.1784" y2="14.9126" gradientUnits="userSpaceOnUse">
<stop offset="0.782" stop-color="#E88518" stop-opacity="0"/>
<stop offset="1" stop-color="#E88518"/>
</linearGradient>
<linearGradient id="paint24_linear_23_2" x1="26.8375" y1="13.5031" x2="26.1784" y2="14.9126" gradientUnits="userSpaceOnUse">
<stop offset="0.782" stop-color="#E88518" stop-opacity="0"/>
<stop offset="1" stop-color="#E88518"/>
</linearGradient>
<linearGradient id="paint25_linear_23_2" x1="28.253" y1="16.492" x2="26.8755" y2="16.9539" gradientUnits="userSpaceOnUse">
<stop offset="0.776" stop-color="#E88518" stop-opacity="0"/>
<stop offset="1" stop-color="#E88518"/>
</linearGradient>
<radialGradient id="paint26_radial_23_2" cx="0" cy="0" r="1" gradientUnits="userSpaceOnUse" gradientTransform="translate(27.2853 9.91384) rotate(43.142) scale(5.10101 4.36174)">
<stop stop-color="#FFF270" stop-opacity="0"/>
<stop offset="0.548" stop-color="#FFF270"/>
<stop offset="1" stop-color="#FFF270" stop-opacity="0"/>
</radialGradient>
<linearGradient id="paint27_linear_23_2" x1="27.8956" y1="16.8791" x2="27.3351" y2="15.9636" gradientUnits="userSpaceOnUse">
<stop stop-color="#FFF270" stop-opacity="0"/>
<stop offset="0.495" stop-color="#FFF270" stop-opacity="0.6"/>
<stop offset="1" stop-color="#FFF270" stop-opacity="0"/>
</linearGradient>
<linearGradient id="paint28_linear_23_2" x1="27.2044" y1="9.6995" x2="28.2969" y2="11.2884" gradientUnits="userSpaceOnUse">
<stop stop-color="#FF8A09" stop-opacity="0.6"/>
<stop offset="1" stop-color="#FF8A09" stop-opacity="0"/>
</linearGradient>
</defs>
</svg>
